<svg xmlns="http://www.w3.org/2000/svg" width="384" height="384" viewBox="0 0 384 384" fill="none"> <path d="M156.88 131.6V266.48H110.4C105.04 259.36 96.32 254.8 86.48 254.8C76.64 254.8 67.84 259.36 62.48 266.48H16V199.28H104.16V131.6H156.88Z" fill="#EFEFEF"></path> <path d="M368 72V266.48H304.08C298.72 259.36 289.92 254.8 280.08 254.8C270.24 254.8 261.52 259.36 256.16 266.48H156.88V72H368Z" fill="white"></path> <path d="M104.16 131.6V199.28H16L51.28 131.6H104.16Z" fill="#009fe3"></path> <path d="M116.24 283.44C116.24 299.2 102.88 312 86.4799 312C69.9999 312 56.6399 299.2 56.6399 283.44C56.6399 277.04 58.7999 271.2 62.4799 266.48C67.8399 259.36 76.6399 254.8 86.4799 254.8C96.3199 254.8 105.04 259.36 110.4 266.48C114.08 271.2 116.24 277.04 116.24 283.44Z" fill="#009fe3"></path> <path d="M309.92 283.44C309.92 299.2 296.56 312 280.08 312C263.68 312 250.32 299.2 250.32 283.44C250.32 277.04 252.48 271.2 256.16 266.48C261.52 259.36 270.24 254.8 280.08 254.8C289.92 254.8 298.72 259.36 304.08 266.48C307.76 271.2 309.92 277.04 309.92 283.44Z" fill="#009fe3"></path> <path d="M368 56H156.88C148.048 56 140.88 63.168 140.88 72V115.6H104.16H51.28C45.32 115.6 39.848 118.92 37.096 124.208L1.816 191.888C1.744 192.032 1.72 192.192 1.656 192.336C1.192 193.288 0.824 194.28 0.56 195.328C0.512 195.512 0.432 195.688 0.392 195.88C0.144 196.976 0 198.112 0 199.28V266.48C0 275.312 7.168 282.48 16 282.48H40.72C40.712 282.808 40.64 283.112 40.64 283.44C40.64 308.008 61.2 328 86.472 328C111.704 328 132.24 308.008 132.24 283.44C132.24 283.112 132.168 282.8 132.16 282.48H156.88H234.4C234.392 282.808 234.32 283.112 234.32 283.44C234.32 308.008 254.84 328 280.08 328C305.36 328 325.92 308.008 325.92 283.44C325.92 283.112 325.848 282.8 325.84 282.48H368C376.832 282.48 384 275.312 384 266.48V72C384 63.168 376.832 56 368 56ZM60.984 147.6H88.152V183.28H42.376L60.984 147.6ZM32 215.28H104.16C112.992 215.28 120.16 208.112 120.16 199.28V147.6H140.888V250.48H117.32C117.152 250.328 116.952 250.232 116.784 250.08C114.96 248.504 113.032 247.064 110.984 245.792C110.592 245.552 110.184 245.344 109.784 245.12C107.88 244.016 105.904 243.048 103.848 242.224C103.48 242.08 103.128 241.904 102.752 241.76C100.464 240.912 98.104 240.264 95.696 239.776C95.16 239.664 94.616 239.584 94.072 239.496C91.576 239.08 89.048 238.8 86.48 238.8C83.896 238.8 81.36 239.088 78.848 239.504C78.32 239.592 77.792 239.672 77.264 239.776C74.816 240.264 72.416 240.92 70.096 241.784C69.808 241.888 69.536 242.024 69.248 242.136C67 243.024 64.84 244.072 62.776 245.288C62.552 245.424 62.312 245.536 62.088 245.672C59.904 247.008 57.856 248.528 55.936 250.208C55.824 250.312 55.68 250.376 55.568 250.48H32V215.28ZM86.48 296C78.848 296 72.648 290.368 72.648 283.44C72.648 280.8 73.48 278.408 75.256 276.104C79.96 269.872 91.12 269.528 96.608 275.088C97.008 275.496 97.44 275.856 97.792 276.32C99.424 278.416 100.256 280.808 100.256 283.44C100.24 290.368 94.072 296 86.48 296ZM280.08 296C272.496 296 266.32 290.368 266.32 283.44C266.32 280.8 267.152 278.408 268.928 276.104C273.664 269.832 284.744 269.584 290.216 275.024C290.64 275.448 291.096 275.832 291.464 276.32C293.096 278.416 293.928 280.808 293.928 283.44C293.92 290.368 287.712 296 280.08 296ZM310.984 250.48C310.824 250.336 310.624 250.24 310.464 250.096C308.632 248.512 306.688 247.064 304.632 245.792C304.248 245.552 303.848 245.352 303.456 245.128C301.544 244.024 299.552 243.048 297.488 242.224C297.12 242.08 296.776 241.904 296.4 241.768C294.112 240.92 291.736 240.272 289.32 239.784C288.776 239.672 288.24 239.592 287.688 239.504C285.184 239.088 282.648 238.808 280.072 238.808C277.496 238.808 274.968 239.096 272.464 239.512C271.936 239.6 271.416 239.68 270.888 239.784C268.44 240.272 266.048 240.928 263.736 241.792C263.448 241.896 263.176 242.032 262.896 242.144C260.656 243.032 258.496 244.088 256.432 245.296C256.208 245.424 255.976 245.544 255.752 245.68C253.56 247.016 251.512 248.544 249.592 250.232C249.48 250.328 249.352 250.392 249.24 250.488H172.88V131.6V88H352V123.624H245.336C236.504 123.624 229.336 130.792 229.336 139.624C229.336 148.456 236.504 155.624 245.336 155.624H352V174.4H280.104C271.272 174.4 264.104 181.568 264.104 190.4C264.104 199.232 271.272 206.4 280.104 206.4H352V250.48H310.984Z" fill="#3C3A41"></path> </svg>