<svg xmlns="http://www.w3.org/2000/svg" width="385" height="385" viewBox="0 0 385 385" fill="none"> <g clip-path="url(#clip0)"> <path d="M352.33 79.2061L340.33 91.2061L292.97 43.7661L304.97 31.7661C321.37 15.3661 341.93 9.36607 358.33 25.7661C374.65 42.1661 368.73 62.8061 352.33 79.2061Z" fill="white"></path> <path d="M340.33 91.2061L261.77 169.846L244.81 186.806L173.45 210.886L197.45 139.366L261.77 74.9661L292.97 43.7661L340.33 91.2061Z" fill="#009fe3"></path> <path d="M197.45 139.366L173.45 210.886L244.81 186.806L261.77 169.846V368.086H16.0098V68.0061H261.77V74.9661L197.45 139.366Z" fill="white"></path> <path d="M293.658 20.454L281.658 32.454L262.09 52.038C261.986 52.038 261.882 52.006 261.77 52.006H16.0098C7.17777 52.006 0.00976562 59.174 0.00976562 68.006V368.086C0.00976562 376.918 7.17777 384.086 16.0098 384.086H261.77C270.602 384.086 277.77 376.918 277.77 368.086V176.454L351.65 102.518C351.658 102.51 351.658 102.502 351.666 102.494L363.642 90.518C388.514 65.638 390.882 35.79 369.642 14.454C348.386 -6.80196 318.554 -4.45796 293.658 20.454ZM316.282 43.078C328.466 30.902 338.81 28.87 346.986 37.054C357.234 47.358 349.394 59.51 341.01 67.894L340.338 68.566L323.434 51.63L315.586 43.766L316.282 43.078ZM32.0098 352.086V84.006H230.13L186.13 128.062C184.386 129.806 183.066 131.934 182.282 134.278L158.282 205.798C156.346 211.558 157.842 217.918 162.146 222.214C163.106 223.174 164.202 223.942 165.338 224.614C165.65 224.798 165.97 224.958 166.298 225.118C167.258 225.598 168.25 225.982 169.282 226.262C169.538 226.334 169.778 226.43 170.034 226.486C171.162 226.734 172.306 226.886 173.466 226.886C173.578 226.886 173.69 226.83 173.802 226.83C175.41 226.798 177.018 226.574 178.586 226.046L245.786 203.366V352.086H32.0098ZM236.146 172.846L198.874 185.422L211.426 148.014L292.962 66.406L311.202 84.678L317.714 91.206L236.146 172.846Z" fill="#323232"></path> <path d="M171.618 122.238C171.618 113.406 164.45 106.238 155.618 106.238H121.082C112.25 106.238 105.082 113.406 105.082 122.238C105.082 131.07 112.25 138.238 121.082 138.238H155.618C164.45 138.238 171.618 131.07 171.618 122.238Z" fill="#323232"></path> <path d="M113.002 299.862H84.5376V271.358C84.5376 262.526 77.3696 255.358 68.5376 255.358C59.7056 255.358 52.5376 262.526 52.5376 271.358V315.862C52.5376 324.694 59.7056 331.862 68.5376 331.862H113.002C121.834 331.862 129.002 324.694 129.002 315.862C129.002 307.03 121.842 299.862 113.002 299.862Z" fill="#323232"></path> </g> <defs> <clipPath id="clip0"> <rect width="384.086" height="384.086" fill="white"></rect> </clipPath> </defs> </svg>