<svg xmlns="http://www.w3.org/2000/svg" width="385" height="385" viewBox="0 0 385 385" fill="none"> <g clip-path="url(#clip0)"> <path d="M336.003 16.0049V368.005H48.0029V16.0049L102.003 52.9649L146.963 16.0049L191.923 52.9649L236.883 16.0049L281.923 52.9649L336.003 16.0049Z" fill="white"></path> <path d="M48.0029 384.005H336.003C344.835 384.005 352.003 376.837 352.003 368.005V16.005C352.003 10.069 348.723 4.62902 343.475 1.85302C338.227 -0.922977 331.875 -0.554977 326.971 2.78902L282.803 32.981L247.035 3.63702C241.147 -1.20298 232.627 -1.20298 226.723 3.64502L191.923 32.253L157.123 3.64502C151.219 -1.20298 142.699 -1.20298 136.795 3.64502L101.123 32.973L57.0429 2.80502C52.1469 -0.546977 45.7949 -0.906977 40.5389 1.85302C35.2909 4.62102 32.0029 10.069 32.0029 16.005V368.005C32.0029 376.837 39.1709 384.005 48.0029 384.005ZM64.0029 46.341L92.9629 66.165C98.8349 70.181 106.659 69.837 112.163 65.325L146.963 36.717L181.763 65.325C187.667 70.173 196.187 70.173 202.091 65.325L236.899 36.709L271.779 65.333C277.283 69.853 285.091 70.173 290.955 66.173L320.003 46.325V352.005H64.0029V46.341V46.341Z" fill="#323232"></path> <path d="M183.067 105.149C175.707 100.269 165.779 102.253 160.891 109.613L135.323 148.053L122.531 134.725C116.395 128.349 106.275 128.141 99.9068 134.261C93.5308 140.381 93.3228 150.509 99.4348 156.885L126.043 184.605C129.075 187.765 133.251 189.525 137.587 189.525C138.059 189.525 138.531 189.509 139.011 189.461C143.843 189.029 148.219 186.429 150.907 182.381L187.523 127.325C192.427 119.973 190.427 110.037 183.067 105.149Z" fill="#323232"></path> <path d="M183.067 225.269C175.707 220.389 165.779 222.381 160.891 229.733L135.323 268.173L122.531 254.845C116.395 248.469 106.275 248.269 99.9068 254.381C93.5308 260.501 93.3228 270.629 99.4348 277.005L126.043 304.725C129.075 307.885 133.251 309.645 137.587 309.645C138.059 309.645 138.531 309.629 139.011 309.581C143.843 309.149 148.219 306.549 150.907 302.501L187.523 247.445C192.427 240.101 190.427 230.165 183.067 225.269Z" fill="#323232"></path> <path d="M271.987 139.045H227.443C218.611 139.045 211.443 146.213 211.443 155.045C211.443 163.877 218.611 171.045 227.443 171.045H271.987C280.819 171.045 287.987 163.877 287.987 155.045C287.987 146.213 280.827 139.045 271.987 139.045Z" fill="#323232"></path> <path d="M271.987 259.173H227.443C218.611 259.173 211.443 266.341 211.443 275.173C211.443 284.005 218.611 291.173 227.443 291.173H271.987C280.819 291.173 287.987 284.005 287.987 275.173C287.987 266.341 280.827 259.173 271.987 259.173Z" fill="#323232"></path> </g> <defs> <clipPath id="clip0"> <rect width="384.005" height="384.005" fill="white"></rect> </clipPath> </defs> </svg> 