<svg xmlns="http://www.w3.org/2000/svg" width="384" height="384" viewBox="0 0 384 384" fill="none"> <path d="M304.961 129.68C304.961 166.64 287.441 199.52 260.321 220.24C241.361 234.8 217.681 243.44 192.001 243.44C166.321 243.44 142.641 234.8 123.681 220.24C96.561 199.52 79.041 166.64 79.041 129.68C79.041 66.88 129.601 16 192.001 16C254.401 16 304.961 66.88 304.961 129.68Z" fill="white"></path> <path d="M328.001 324.72L275.601 316.32L262.081 368L192.001 259.84L121.921 368L108.401 316.32L56.001 324.72L123.681 220.24C142.641 234.8 166.321 243.44 192.001 243.44C217.681 243.44 241.361 234.8 260.321 220.24L328.001 324.72Z" fill="#009fe3"></path> <path d="M42.593 333.456C46.049 338.752 52.273 341.528 58.529 340.52L96.593 334.424L106.441 372.056C108.049 378.192 113.121 382.792 119.385 383.8C125.617 384.784 131.897 382.016 135.353 376.704L192.001 289.264L248.649 376.696C251.633 381.296 256.713 384 262.081 384C262.913 384 263.769 383.936 264.617 383.8C270.873 382.792 275.953 378.184 277.553 372.056L287.401 334.424L325.465 340.52C331.705 341.528 337.953 338.752 341.401 333.456C344.857 328.16 344.865 321.328 341.425 316.024L281.329 223.248C306.673 198.904 320.953 165.552 320.953 129.68C320.961 58.176 263.113 0 192.001 0C120.889 0 63.041 58.176 63.041 129.68C63.041 165.56 77.337 198.92 102.665 223.248L42.569 316.016C39.137 321.328 39.145 328.16 42.593 333.456ZM278.137 300.52C270.073 299.216 262.217 304.296 260.129 312.264L255.785 328.856L210.001 258.192C210.457 258.128 210.897 258.008 211.345 257.936C214.033 257.528 216.681 257 219.329 256.432C220.393 256.2 221.465 256.032 222.521 255.776C226.217 254.872 229.873 253.832 233.465 252.6C233.873 252.456 234.273 252.272 234.681 252.128C237.841 251.008 240.961 249.776 244.025 248.416C245.145 247.92 246.225 247.344 247.329 246.816C249.649 245.696 251.953 244.544 254.217 243.28C254.697 243.008 255.209 242.8 255.689 242.528L295.009 303.224L278.137 300.52ZM95.041 129.68C95.041 75.824 138.537 32 192.001 32C245.465 32 288.961 75.824 288.961 129.68C288.961 160.528 274.985 188.904 250.577 207.552C233.633 220.56 213.377 227.44 192.001 227.44C170.625 227.44 150.369 220.56 133.393 207.52C109.017 188.904 95.041 160.528 95.041 129.68ZM128.305 242.528C128.801 242.816 129.329 243.032 129.825 243.312C132.017 244.536 134.249 245.648 136.497 246.736C137.673 247.304 138.825 247.912 140.009 248.44C142.985 249.768 146.009 250.952 149.073 252.048C149.569 252.224 150.049 252.448 150.545 252.616C154.129 253.84 157.769 254.88 161.457 255.784C162.529 256.048 163.625 256.224 164.705 256.456C167.337 257.024 169.969 257.552 172.641 257.952C173.097 258.024 173.537 258.144 173.993 258.208L128.209 328.872L123.873 312.28C122.009 305.152 115.569 300.328 108.409 300.328C107.569 300.328 106.713 300.392 105.865 300.528L88.985 303.232L128.305 242.528Z" fill="#3C3A41"></path> <path d="M157.785 139.088L151.793 157.624C149.665 164.224 152.025 171.448 157.641 175.504C163.257 179.568 170.857 179.544 176.457 175.456L192.001 164.104L207.545 175.464C210.353 177.52 213.673 178.544 216.985 178.544C220.273 178.544 223.561 177.536 226.361 175.512C231.977 171.448 234.345 164.224 232.209 157.624L226.217 139.096L241.849 127.664C247.433 123.576 249.761 116.36 247.617 109.784C245.465 103.208 239.329 98.752 232.409 98.752H213.185L207.233 80.296C205.097 73.68 198.945 69.2 192.001 69.2C185.057 69.2 178.905 73.68 176.777 80.288L170.817 98.744H151.593C144.673 98.744 138.537 103.2 136.385 109.776C134.233 116.36 136.561 123.576 142.153 127.656L157.785 139.088ZM192.001 127.592C192.097 127.664 192.201 127.744 192.305 127.808C192.249 127.968 192.201 128.128 192.145 128.28C192.041 128.28 191.953 128.28 191.849 128.28C191.801 128.12 191.745 127.96 191.689 127.8C191.801 127.736 191.897 127.664 192.001 127.592Z" fill="#3C3A41"></path> </svg> 