<svg xmlns="http://www.w3.org/2000/svg" width="384" height="384" viewBox="0 0 384 384" fill="none"> <g clip-path="url(#clip0)"> <path d="M270.394 143.668L191.994 188.068L39.9939 101.988L118.394 57.668L270.394 143.668Z" fill="#009fe3"></path> <path d="M343.994 101.988L270.394 143.668L118.394 57.668L191.994 15.988L343.994 101.988Z" fill="#009fe3"></path> <path d="M343.994 101.988V281.988L191.994 367.988V188.068L270.394 143.668L343.994 101.988Z" fill="white"></path> <path d="M191.994 188.068V367.988L39.9939 281.988V101.988L191.994 188.068Z" fill="#EFEFEF"></path> <path d="M359.954 101.676C359.93 100.356 359.77 99.052 359.434 97.812C359.29 97.276 359.002 96.804 358.802 96.292C358.498 95.508 358.25 94.708 357.834 93.98C357.546 93.476 357.13 93.068 356.786 92.604C356.306 91.948 355.882 91.268 355.306 90.692C354.898 90.284 354.378 89.988 353.93 89.628C353.314 89.132 352.746 88.58 352.05 88.172C352.018 88.156 351.978 88.148 351.946 88.132C351.914 88.116 351.898 88.092 351.866 88.076L199.866 2.076C194.978 -0.692 188.994 -0.692 184.106 2.076L110.53 43.74C110.522 43.74 110.514 43.748 110.506 43.748L32.1059 88.068C32.0739 88.084 32.0499 88.116 32.0179 88.132C31.9859 88.148 31.9539 88.156 31.9219 88.172C31.2419 88.564 30.6979 89.108 30.0979 89.588C29.6259 89.964 29.0899 90.268 28.6739 90.692C28.0819 91.284 27.6419 91.98 27.1539 92.652C26.8259 93.1 26.4259 93.5 26.1459 93.98C25.6899 94.764 25.4099 95.628 25.0979 96.484C24.9299 96.932 24.6739 97.34 24.5539 97.812C24.2259 99.012 24.0899 100.26 24.0579 101.532C24.0499 101.676 23.9939 101.82 23.9939 101.98V281.98C23.9939 287.748 27.0979 293.068 32.1139 295.908L184.114 381.908C184.93 382.364 185.802 382.636 186.666 382.94C187.082 383.092 187.474 383.332 187.906 383.444C189.242 383.804 190.618 383.988 191.994 383.988C193.37 383.988 194.746 383.804 196.082 383.452C196.514 383.34 196.898 383.1 197.322 382.948C198.186 382.644 199.058 382.372 199.874 381.916L351.874 295.916C356.89 293.076 359.994 287.756 359.994 281.988V101.988C359.994 101.876 359.954 101.78 359.954 101.676ZM191.994 34.372L311.506 101.996L270.378 125.284L150.874 57.66L191.994 34.372ZM118.386 76.052L237.906 143.676L191.994 169.676L72.4899 101.996L118.386 76.052ZM55.9939 129.436L175.994 197.396V340.548L55.9939 272.652V129.436ZM327.994 272.652L207.994 340.548V197.396L327.994 129.436V272.652Z" fill="#3C3A41"></path> </g> <defs> <clipPath id="clip0"> <rect width="383.988" height="383.988" fill="white"></rect> </clipPath> </defs> </svg>